<svg xmlns="http://www.w3.org/2000/svg" width="14" height="14" fill="none" viewBox="0 0 14 14"><g clip-path="url(#clip0_251_1111)"><path fill="#9A9B9B" d="M6.99999 0C3.134 0 0 3.134 0 6.99999C0 10.866 3.134 14 6.99999 14C10.866 14 14 10.866 14 6.99999C13.9959 3.13573 10.8643 0.00413086 6.99999 0ZM6.99999 13C3.68628 13 0.99999 10.3137 0.99999 6.99999C0.99999 3.68628 3.68628 0.99999 6.99999 0.99999C10.3137 0.99999 13 3.68628 13 6.99999C12.9964 10.3122 10.3122 12.9964 6.99999 13Z"/><path fill="#9A9B9B" d="M6.99901 11C9.20814 11 10.999 9.20912 10.999 6.99999C10.999 4.79086 9.20814 3 6.99901 3C4.78988 3 2.99902 4.79086 2.99902 6.99999C2.99902 9.20912 4.78988 11 6.99901 11Z"/></g><defs><clipPath id="clip0_251_1111"><rect width="14" height="14" fill="#fff"/></clipPath></defs></svg>